<svg width="295" height="81" viewBox="0 0 295 81" fill="none" xmlns="http://www.w3.org/2000/svg">
<path d="M8.10796 26.2521C6.59596 26.2521 5.26396 26.0001 4.11196 25.4961C2.98396 24.9921 2.10796 24.2841 1.48396 23.3721C0.859956 22.4601 0.547956 21.4161 0.547956 20.2401C0.547956 19.9281 0.559956 19.6881 0.583956 19.5201H3.06796C3.01996 20.2881 3.15196 21.0321 3.46396 21.7521C3.79996 22.4481 4.36396 23.0361 5.15596 23.5161C5.97196 23.9721 7.01596 24.2001 8.28796 24.2001C10.064 24.2001 11.48 23.7561 12.536 22.8681C13.592 21.9801 14.12 20.7801 14.12 19.2681C14.12 18.3561 13.868 17.6001 13.364 17.0001C12.884 16.3761 12.284 15.8721 11.564 15.4881C10.844 15.0801 9.85996 14.6241 8.61196 14.1201C7.14796 13.5441 5.98396 13.0161 5.11996 12.5361C4.25596 12.0321 3.53596 11.3481 2.95996 10.4841C2.40796 9.6201 2.17996 8.5161 2.27596 7.1721C2.32396 5.8761 2.70796 4.7361 3.42796 3.7521C4.17196 2.7441 5.16796 1.9641 6.41596 1.4121C7.68796 0.836096 9.12796 0.548096 10.736 0.548096C12.32 0.548096 13.676 0.824096 14.804 1.3761C15.956 1.9041 16.808 2.6361 17.36 3.5721C17.936 4.5081 18.188 5.5401 18.116 6.6681H15.488C15.536 6.0201 15.38 5.3841 15.02 4.7601C14.684 4.1361 14.132 3.6321 13.364 3.2481C12.62 2.8401 11.696 2.6361 10.592 2.6361C8.88796 2.6361 7.49596 3.0561 6.41596 3.8961C5.33596 4.7121 4.79596 5.8281 4.79596 7.2441C4.79596 8.0841 5.03596 8.7921 5.51596 9.3681C5.99596 9.9441 6.58396 10.4241 7.27996 10.8081C7.97596 11.1921 8.93596 11.6361 10.16 12.1401C11.576 12.7161 12.716 13.2561 13.58 13.7601C14.468 14.2641 15.212 14.9361 15.812 15.7761C16.436 16.6161 16.748 17.6721 16.748 18.9441C16.748 19.2561 16.736 19.4961 16.712 19.6641C16.616 20.8881 16.208 22.0041 15.488 23.0121C14.768 24.0201 13.772 24.8121 12.5 25.3881C11.252 25.9641 9.78796 26.2521 8.10796 26.2521ZM47.2186 0.836095L42.7546 26.0001H40.2346L42.3226 14.1561H28.6786L26.5906 26.0001H24.0706L28.4986 0.836095H31.0186L29.0386 12.1761H42.6826L44.6986 0.836095H47.2186ZM67.7642 20.0241H56.2802L53.0402 26.0001H50.3762L63.9482 1.1601H66.7922L71.5442 26.0001H68.8802L67.7642 20.0241ZM67.3682 18.0081L64.8122 4.2921L57.3602 18.0081H67.3682ZM102.337 0.836095L97.8726 26.0001H95.3526L97.4406 14.1561H83.7966L81.7086 26.0001H79.1886L83.6166 0.836095H86.1366L84.1566 12.1761H97.8006L99.8166 0.836095H102.337ZM119.246 0.836095C121.718 0.836095 123.566 1.3641 124.79 2.4201C126.038 3.4761 126.662 4.8921 126.662 6.6681C126.662 6.9801 126.614 7.4721 126.518 8.1441C126.206 9.9681 125.414 11.5281 124.142 12.8241C122.87 14.0961 121.178 14.9241 119.066 15.3081L123.638 26.0001H120.614L116.258 15.4881H111.578L109.742 26.0001H107.222L111.65 0.836095H119.246ZM123.89 8.1441C123.962 7.6641 123.998 7.2321 123.998 6.8481C123.998 5.5761 123.578 4.5921 122.738 3.8961C121.898 3.2001 120.602 2.8521 118.85 2.8521H113.81L111.938 13.4721H117.014C119.006 13.4721 120.578 12.9921 121.73 12.0321C122.882 11.0721 123.602 9.7761 123.89 8.1441ZM138.899 0.836095L134.471 26.0001H131.951L136.379 0.836095H138.899ZM159.438 20.0241H147.954L144.714 26.0001H142.05L155.622 1.1601H158.466L163.218 26.0001H160.554L159.438 20.0241ZM159.042 18.0081L156.486 4.2921L149.034 18.0081H159.042ZM182.886 0.836095C185.358 0.836095 187.206 1.3641 188.43 2.4201C189.678 3.4761 190.302 4.8921 190.302 6.6681C190.302 6.9801 190.254 7.4721 190.158 8.1441C189.846 9.9681 189.054 11.5281 187.782 12.8241C186.51 14.0961 184.818 14.9241 182.706 15.3081L187.278 26.0001H184.254L179.898 15.4881H175.218L173.382 26.0001H170.862L175.29 0.836095H182.886ZM187.53 8.1441C187.602 7.6641 187.638 7.2321 187.638 6.8481C187.638 5.5761 187.218 4.5921 186.378 3.8961C185.538 3.2001 184.242 2.8521 182.49 2.8521H177.45L175.578 13.4721H180.654C182.646 13.4721 184.218 12.9921 185.37 12.0321C186.522 11.0721 187.242 9.7761 187.53 8.1441ZM200.739 0.836095H203.655L199.119 8.6121H197.283L200.739 0.836095ZM214.32 26.2521C212.808 26.2521 211.476 26.0001 210.324 25.4961C209.196 24.9921 208.32 24.2841 207.696 23.3721C207.072 22.4601 206.76 21.4161 206.76 20.2401C206.76 19.9281 206.772 19.6881 206.796 19.5201H209.28C209.232 20.2881 209.364 21.0321 209.676 21.7521C210.012 22.4481 210.576 23.0361 211.368 23.5161C212.184 23.9721 213.228 24.2001 214.5 24.2001C216.276 24.2001 217.692 23.7561 218.748 22.8681C219.804 21.9801 220.332 20.7801 220.332 19.2681C220.332 18.3561 220.08 17.6001 219.576 17.0001C219.096 16.3761 218.496 15.8721 217.776 15.4881C217.056 15.0801 216.072 14.6241 214.824 14.1201C213.36 13.5441 212.196 13.0161 211.332 12.5361C210.468 12.0321 209.748 11.3481 209.172 10.4841C208.62 9.6201 208.392 8.5161 208.488 7.1721C208.536 5.8761 208.92 4.7361 209.64 3.7521C210.384 2.7441 211.38 1.9641 212.628 1.4121C213.9 0.836096 215.34 0.548096 216.948 0.548096C218.532 0.548096 219.888 0.824096 221.016 1.3761C222.168 1.9041 223.02 2.6361 223.572 3.5721C224.148 4.5081 224.4 5.5401 224.328 6.6681H221.7C221.748 6.0201 221.592 5.3841 221.232 4.7601C220.896 4.1361 220.344 3.6321 219.576 3.2481C218.832 2.8401 217.908 2.6361 216.804 2.6361C215.1 2.6361 213.708 3.0561 212.628 3.8961C211.548 4.7121 211.008 5.8281 211.008 7.2441C211.008 8.0841 211.248 8.7921 211.728 9.3681C212.208 9.9441 212.796 10.4241 213.492 10.8081C214.188 11.1921 215.148 11.6361 216.372 12.1401C217.788 12.7161 218.928 13.2561 219.792 13.7601C220.68 14.2641 221.424 14.9361 222.024 15.7761C222.648 16.6161 222.96 17.6721 222.96 18.9441C222.96 19.2561 222.948 19.4961 222.924 19.6641C222.828 20.8881 222.42 22.0041 221.7 23.0121C220.98 24.0201 219.984 24.8121 218.712 25.3881C217.464 25.9641 216 26.2521 214.32 26.2521ZM19.34 62.0721C18.956 64.2321 17.936 65.9721 16.28 67.2921C14.624 68.6121 12.38 69.2721 9.54796 69.2721H4.47196L2.59996 80.0001H0.0799561L4.50796 54.8361H12.104C14.576 54.8361 16.424 55.3521 17.648 56.3841C18.872 57.4161 19.484 58.8081 19.484 60.5601C19.484 61.1121 19.436 61.6161 19.34 62.0721ZM9.94396 67.1841C13.88 67.1841 16.148 65.4801 16.748 62.0721C16.844 61.4481 16.892 61.0041 16.892 60.7401C16.892 58.1481 15.176 56.8521 11.744 56.8521H6.66796L4.86796 67.1841H9.94396ZM47.1483 54.8361L42.6843 80.0001H40.1643L42.2523 68.1561H28.6083L26.5203 80.0001H24.0003L28.4283 54.8361H30.9483L28.9683 66.1761H42.6123L44.6283 54.8361H47.1483ZM63.3739 80.2521C61.3099 80.2521 59.4859 79.8201 57.9019 78.9561C56.3419 78.0921 55.1299 76.8801 54.2659 75.3201C53.4019 73.7361 52.9699 71.9361 52.9699 69.9201C52.9699 67.1121 53.6179 64.5321 54.9139 62.1801C56.2099 59.8281 57.9859 57.9681 60.2419 56.6001C62.4979 55.2321 65.0059 54.5481 67.7659 54.5481C69.8299 54.5481 71.6419 54.9801 73.2019 55.8441C74.7859 56.7081 75.9979 57.9321 76.8379 59.5161C77.7019 61.0761 78.1339 62.8761 78.1339 64.9161C78.1339 67.7241 77.4859 70.3041 76.1899 72.6561C74.9179 74.9841 73.1539 76.8321 70.8979 78.2001C68.6419 79.5681 66.1339 80.2521 63.3739 80.2521ZM63.7339 77.9841C65.9899 77.9841 68.0179 77.3961 69.8179 76.2201C71.6179 75.0441 73.0219 73.4721 74.0299 71.5041C75.0379 69.5121 75.5419 67.3641 75.5419 65.0601C75.5419 62.5161 74.7979 60.5121 73.3099 59.0481C71.8459 57.5841 69.8659 56.8521 67.3699 56.8521C65.1139 56.8521 63.0859 57.4401 61.2859 58.6161C59.5099 59.7921 58.1179 61.3761 57.1099 63.3681C56.1019 65.3361 55.5979 67.4601 55.5979 69.7401C55.5979 72.2841 56.3299 74.3001 57.7939 75.7881C59.2819 77.2521 61.2619 77.9841 63.7339 77.9841ZM103.193 54.8361L102.833 56.8521H95.813L91.745 80.0001H89.225L93.293 56.8521H86.309L86.669 54.8361H103.193ZM117.648 80.2521C115.584 80.2521 113.76 79.8201 112.176 78.9561C110.616 78.0921 109.404 76.8801 108.54 75.3201C107.676 73.7361 107.244 71.9361 107.244 69.9201C107.244 67.1121 107.892 64.5321 109.188 62.1801C110.484 59.8281 112.26 57.9681 114.516 56.6001C116.772 55.2321 119.28 54.5481 122.04 54.5481C124.104 54.5481 125.916 54.9801 127.476 55.8441C129.06 56.7081 130.272 57.9321 131.112 59.5161C131.976 61.0761 132.408 62.8761 132.408 64.9161C132.408 67.7241 131.76 70.3041 130.464 72.6561C129.192 74.9841 127.428 76.8321 125.172 78.2001C122.916 79.5681 120.408 80.2521 117.648 80.2521ZM118.008 77.9841C120.264 77.9841 122.292 77.3961 124.092 76.2201C125.892 75.0441 127.296 73.4721 128.304 71.5041C129.312 69.5121 129.816 67.3641 129.816 65.0601C129.816 62.5161 129.072 60.5121 127.584 59.0481C126.12 57.5841 124.14 56.8521 121.644 56.8521C119.388 56.8521 117.36 57.4401 115.56 58.6161C113.784 59.7921 112.392 61.3761 111.384 63.3681C110.376 65.3361 109.872 67.4601 109.872 69.7401C109.872 72.2841 110.604 74.3001 112.068 75.7881C113.556 77.2521 115.536 77.9841 118.008 77.9841ZM139.359 67.4001C139.791 64.9281 140.727 62.7201 142.167 60.7761C143.607 58.8081 145.371 57.2841 147.459 56.2041C149.547 55.1001 151.755 54.5481 154.083 54.5481C156.771 54.5481 159.003 55.2201 160.779 56.5641C162.555 57.9081 163.695 59.7801 164.199 62.1801H161.247C160.815 60.5241 159.939 59.2281 158.619 58.2921C157.299 57.3321 155.643 56.8521 153.651 56.8521C151.779 56.8521 150.015 57.2841 148.359 58.1481C146.727 59.0121 145.347 60.2481 144.219 61.8561C143.091 63.4401 142.335 65.2881 141.951 67.4001C141.807 68.2161 141.735 69.0081 141.735 69.7761C141.735 71.4561 142.071 72.9201 142.743 74.1681C143.439 75.3921 144.399 76.3401 145.623 77.0121C146.871 77.6601 148.311 77.9841 149.943 77.9841C151.695 77.9841 153.339 77.6121 154.875 76.8681C156.411 76.1001 157.731 75.0081 158.835 73.5921C159.939 72.1761 160.719 70.5321 161.175 68.6601H150.591L150.951 66.6441H164.199L163.875 68.4801C163.347 70.6881 162.387 72.6921 160.995 74.4921C159.603 76.2681 157.911 77.6721 155.919 78.7041C153.927 79.7361 151.803 80.2521 149.547 80.2521C147.483 80.2521 145.659 79.8321 144.075 78.9921C142.515 78.1281 141.291 76.9281 140.403 75.3921C139.539 73.8321 139.107 72.0321 139.107 69.9921C139.107 69.3201 139.191 68.4561 139.359 67.4001ZM182.063 54.8361C184.535 54.8361 186.383 55.3641 187.607 56.4201C188.855 57.4761 189.479 58.8921 189.479 60.6681C189.479 60.9801 189.431 61.4721 189.335 62.1441C189.023 63.9681 188.231 65.5281 186.959 66.8241C185.687 68.0961 183.995 68.9241 181.883 69.3081L186.455 80.0001H183.431L179.075 69.4881H174.395L172.559 80.0001H170.039L174.467 54.8361H182.063ZM186.707 62.1441C186.779 61.6641 186.815 61.2321 186.815 60.8481C186.815 59.5761 186.395 58.5921 185.555 57.8961C184.715 57.2001 183.419 56.8521 181.667 56.8521H176.627L174.755 67.4721H179.831C181.823 67.4721 183.395 66.9921 184.547 66.0321C185.699 65.0721 186.419 63.7761 186.707 62.1441ZM210.428 74.0241H198.944L195.704 80.0001H193.04L206.612 55.1601H209.456L214.208 80.0001H211.544L210.428 74.0241ZM210.032 72.0081L207.476 58.2921L200.024 72.0081H210.032ZM241.113 62.0721C240.729 64.2321 239.709 65.9721 238.053 67.2921C236.397 68.6121 234.153 69.2721 231.321 69.2721H226.245L224.373 80.0001H221.853L226.281 54.8361H233.877C236.349 54.8361 238.197 55.3521 239.421 56.3841C240.645 57.4161 241.257 58.8081 241.257 60.5601C241.257 61.1121 241.209 61.6161 241.113 62.0721ZM231.717 67.1841C235.653 67.1841 237.921 65.4801 238.521 62.0721C238.617 61.4481 238.665 61.0041 238.665 60.7401C238.665 58.1481 236.949 56.8521 233.517 56.8521H228.441L226.641 67.1841H231.717ZM268.921 54.8361L264.457 80.0001H261.937L264.025 68.1561H250.381L248.293 80.0001H245.773L250.201 54.8361H252.721L250.741 66.1761H264.385L266.401 54.8361H268.921ZM294.903 54.8361L284.103 70.2081L282.375 80.0001H279.855L281.583 70.2081L276.183 54.8361H279.027L283.239 67.9041L292.059 54.8361H294.903Z" fill="black"/>
</svg>
